<?xml version="1.0" encoding="UTF-8" standalone="no"?>
<!-- Created with Inkscape (http://www.inkscape.org/) -->

<svg
   xmlns:dc="http://purl.org/dc/elements/1.1/"
   xmlns:cc="http://creativecommons.org/ns#"
   xmlns:rdf="http://www.w3.org/1999/02/22-rdf-syntax-ns#"
   xmlns:svg="http://www.w3.org/2000/svg"
   xmlns="http://www.w3.org/2000/svg"
   version="1.1"
   width="744.09448"
   height="1052.3622"
   id="svg2">
  <defs
     id="defs4">
    <linearGradient
       id="linearGradient5213">
      <stop
         id="stop5215"
         style="stop-color:#ff0000;stop-opacity:1"
         offset="0" />
    </linearGradient>
  </defs>
  <metadata
     id="metadata7">
    <rdf:RDF>
      <cc:Work
         rdf:about="">
        <dc:format>image/svg+xml</dc:format>
        <dc:type
           rdf:resource="http://purl.org/dc/dcmitype/StillImage" />
        <dc:title></dc:title>
      </cc:Work>
    </rdf:RDF>
  </metadata>
  <g
     id="layer1">
    <path
       d="m 110.35714,45.933609 a 31.25,33.214283 0 1 1 -62.5,0 31.25,33.214283 0 1 1 62.5,0 z"
       transform="matrix(10.228809,0,0,8.3258357,-432.50049,-44.309891)"
       id="path5231"
       style="fill:#000000;fill-opacity:0.2154696;stroke:#000000;stroke-width:8.39999962;stroke-miterlimit:4;stroke-opacity:1;stroke-dasharray:none" />
    <path
       d="m 68,74.505035 a 3,3 0 1 1 -6,0 3,3 0 1 1 6,0 z"
       transform="matrix(10.617396,0,0,8.6596768,-467.91977,-68.469369)"
       id="path5312"
       style="fill:#000000;stroke:none" />
    <path
       d="m 70.428574,77.719322 a 1.5,1.5 0 1 1 -3,0 1.5,1.5 0 1 1 3,0 z"
       transform="matrix(10.617396,0,0,8.6596768,-467.91977,-68.469369)"
       id="path5316"
       style="fill:#000000;stroke:none" />
    <path
       d="M 101.81638,979.62351 251.79926,623.52666"
       id="path5318"
       style="fill:none;stroke:#000000;stroke-width:105.27327728;stroke-linecap:round;stroke-linejoin:round;stroke-miterlimit:4;stroke-opacity:1;stroke-dasharray:none" />
  </g>
</svg>
